<svg width="51" height="28" viewBox="0 0 51 28" fill="none" xmlns="http://www.w3.org/2000/svg">
<path d="M0 28V22.4H39.6667V28H0ZM0 16.8V11.2H39.6667V16.8H0ZM0 5.6V0H39.6667V5.6H0ZM48.1667 28C47.3639 28 46.691 27.7317 46.1479 27.195C45.6049 26.6583 45.3333 25.9933 45.3333 25.2C45.3333 24.4067 45.6049 23.7417 46.1479 23.205C46.691 22.6683 47.3639 22.4 48.1667 22.4C48.9694 22.4 49.6424 22.6683 50.1854 23.205C50.7285 23.7417 51 24.4067 51 25.2C51 25.9933 50.7285 26.6583 50.1854 27.195C49.6424 27.7317 48.9694 28 48.1667 28ZM48.1667 16.8C47.3639 16.8 46.691 16.5317 46.1479 15.995C45.6049 15.4583 45.3333 14.7933 45.3333 14C45.3333 13.2067 45.6049 12.5417 46.1479 12.005C46.691 11.4683 47.3639 11.2 48.1667 11.2C48.9694 11.2 49.6424 11.4683 50.1854 12.005C50.7285 12.5417 51 13.2067 51 14C51 14.7933 50.7285 15.4583 50.1854 15.995C49.6424 16.5317 48.9694 16.8 48.1667 16.8ZM48.1667 5.6C47.3639 5.6 46.691 5.33167 46.1479 4.795C45.6049 4.25833 45.3333 3.59333 45.3333 2.8C45.3333 2.00667 45.6049 1.34167 46.1479 0.805C46.691 0.268333 47.3639 0 48.1667 0C48.9694 0 49.6424 0.268333 50.1854 0.805C50.7285 1.34167 51 2.00667 51 2.8C51 3.59333 50.7285 4.25833 50.1854 4.795C49.6424 5.33167 48.9694 5.6 48.1667 5.6Z" fill="#F52D38"/>
</svg>
