<svg width="26" height="28" viewBox="0 0 26 28" fill="none" xmlns="http://www.w3.org/2000/svg">
<path d="M7.80721 28C7.09155 28 6.4789 27.7258 5.96926 27.1775C5.45963 26.6292 5.20481 25.97 5.20481 25.2C5.20481 24.43 5.45963 23.7708 5.96926 23.2225C6.4789 22.6742 7.09155 22.4 7.80721 22.4C8.52287 22.4 9.13552 22.6742 9.64516 23.2225C10.1548 23.7708 10.4096 24.43 10.4096 25.2C10.4096 25.97 10.1548 26.6292 9.64516 27.1775C9.13552 27.7258 8.52287 28 7.80721 28ZM20.8192 28C20.1036 28 19.4909 27.7258 18.9813 27.1775C18.4716 26.6292 18.2168 25.97 18.2168 25.2C18.2168 24.43 18.4716 23.7708 18.9813 23.2225C19.4909 22.6742 20.1036 22.4 20.8192 22.4C21.5349 22.4 22.1475 22.6742 22.6572 23.2225C23.1668 23.7708 23.4216 24.43 23.4216 25.2C23.4216 25.97 23.1668 26.6292 22.6572 27.1775C22.1475 27.7258 21.5349 28 20.8192 28ZM6.70119 5.6L9.82408 12.6H18.9325L22.5108 5.6H6.70119ZM5.46505 2.8H24.6578C25.1566 2.8 25.5361 3.03917 25.7963 3.5175C26.0566 3.99583 26.0674 4.48 25.8289 4.97L21.2096 13.93C20.971 14.3967 20.6512 14.7583 20.25 15.015C19.8488 15.2717 19.4096 15.4 18.9325 15.4H9.23854L7.80721 18.2H23.4216V21H7.80721C6.83131 21 6.09396 20.5392 5.59517 19.6175C5.09638 18.6958 5.07469 17.78 5.53011 16.87L7.28673 13.44L2.6024 2.8H0V0H4.22891L5.46505 2.8Z" fill="#FCFCFC"/>
</svg>
